<?xml version="1.0" standalone="no"?>
<!DOCTYPE svg PUBLIC "-//W3C//DTD SVG 20010904//EN"
 "http://www.w3.org/TR/2001/REC-SVG-20010904/DTD/svg10.dtd">
<svg version="1.0" xmlns="http://www.w3.org/2000/svg"
 width="260.000000pt" height="260.000000pt" viewBox="0 0 260.000000 260.000000"
 preserveAspectRatio="xMidYMid meet">
<metadata>
Created by potrace 1.14, written by Peter Selinger 2001-2017
</metadata>
<g transform="translate(0.000000,260.000000) scale(0.100000,-0.100000)"
fill="#000000" stroke="none">
<path d="M539 2537 c-46 -10 -113 -48 -140 -81 -29 -35 -60 -104 -73 -159 -18
-86 -11 -1879 9 -2034 7 -52 34 -101 79 -140 66 -57 113 -74 234 -80 165 -9
650 -9 717 0 146 19 245 41 324 74 85 34 191 98 191 115 0 4 5 8 12 8 12 0 81
55 156 125 120 111 253 356 297 549 32 138 38 565 12 721 -8 46 -65 227 -103
330 -2 6 -15 28 -29 50 -14 22 -28 47 -32 55 -8 16 -19 31 -81 104 -82 96
-134 145 -208 196 -152 105 -281 147 -511 166 -117 10 -805 10 -854 1z m718
-501 c168 -11 254 -35 338 -94 114 -79 208 -253 215 -397 6 -142 5 -368 -3
-450 -14 -159 -23 -198 -70 -289 -30 -58 -52 -87 -86 -112 -62 -45 -177 -101
-237 -114 -27 -7 -158 -13 -291 -16 -280 -5 -257 -14 -263 106 -13 241 5 1337
22 1355 17 19 186 24 375 11z"/>
</g>
</svg>
